<svg width="60" height="30" viewBox="0 0 60 30" fill="none" xmlns="http://www.w3.org/2000/svg">
<mask id="mask0_2010_11534" style="mask-type:alpha" maskUnits="userSpaceOnUse" x="19" y="3" width="22" height="24">
<rect x="19.0283" y="3" width="21.9429" height="24" fill="#D9D9D9"/>
</mask>
<g mask="url(#mask0_2010_11534)">
<path d="M19.0283 21V19.425C19.0283 18.7083 19.3636 18.125 20.034 17.675C20.7045 17.225 21.5883 17 22.6855 17C22.8836 17 23.074 17.0042 23.2569 17.0125C23.4397 17.0208 23.615 17.0417 23.7826 17.075C23.5693 17.425 23.4093 17.7917 23.3026 18.175C23.1959 18.5583 23.1426 18.9583 23.1426 19.375V21H19.0283ZM24.514 21V19.375C24.514 18.8417 24.6474 18.3542 24.914 17.9125C25.1807 17.4708 25.5578 17.0833 26.0455 16.75C26.5331 16.4167 27.1159 16.1667 27.794 16C28.4721 15.8333 29.2074 15.75 29.9997 15.75C30.8074 15.75 31.5502 15.8333 32.2283 16C32.9064 16.1667 33.4893 16.4167 33.9769 16.75C34.4645 17.0833 34.8378 17.4708 35.0969 17.9125C35.3559 18.3542 35.4855 18.8417 35.4855 19.375V21H24.514ZM36.8569 21V19.375C36.8569 18.9417 36.8074 18.5333 36.7083 18.15C36.6093 17.7667 36.4607 17.4083 36.2626 17.075C36.4302 17.0417 36.6017 17.0208 36.7769 17.0125C36.9521 17.0042 37.1312 17 37.314 17C38.4112 17 39.295 17.2208 39.9655 17.6625C40.6359 18.1042 40.9712 18.6917 40.9712 19.425V21H36.8569ZM26.4569 19H33.5655C33.4131 18.6667 32.9902 18.375 32.2969 18.125C31.6036 17.875 30.8378 17.75 29.9997 17.75C29.1617 17.75 28.3959 17.875 27.7026 18.125C27.0093 18.375 26.594 18.6667 26.4569 19ZM22.6855 16C22.1826 16 21.7521 15.8042 21.394 15.4125C21.0359 15.0208 20.8569 14.55 20.8569 14C20.8569 13.4333 21.0359 12.9583 21.394 12.575C21.7521 12.1917 22.1826 12 22.6855 12C23.2036 12 23.6378 12.1917 23.9883 12.575C24.3388 12.9583 24.514 13.4333 24.514 14C24.514 14.55 24.3388 15.0208 23.9883 15.4125C23.6378 15.8042 23.2036 16 22.6855 16ZM37.314 16C36.8112 16 36.3807 15.8042 36.0226 15.4125C35.6645 15.0208 35.4855 14.55 35.4855 14C35.4855 13.4333 35.6645 12.9583 36.0226 12.575C36.3807 12.1917 36.8112 12 37.314 12C37.8321 12 38.2664 12.1917 38.6169 12.575C38.9674 12.9583 39.1426 13.4333 39.1426 14C39.1426 14.55 38.9674 15.0208 38.6169 15.4125C38.2664 15.8042 37.8321 16 37.314 16ZM29.9997 15C29.2378 15 28.5902 14.7083 28.0569 14.125C27.5236 13.5417 27.2569 12.8333 27.2569 12C27.2569 11.15 27.5236 10.4375 28.0569 9.8625C28.5902 9.2875 29.2378 9 29.9997 9C30.7769 9 31.4283 9.2875 31.954 9.8625C32.4797 10.4375 32.7426 11.15 32.7426 12C32.7426 12.8333 32.4797 13.5417 31.954 14.125C31.4283 14.7083 30.7769 15 29.9997 15ZM29.9997 13C30.2588 13 30.4759 12.9042 30.6512 12.7125C30.8264 12.5208 30.914 12.2833 30.914 12C30.914 11.7167 30.8264 11.4792 30.6512 11.2875C30.4759 11.0958 30.2588 11 29.9997 11C29.7407 11 29.5236 11.0958 29.3483 11.2875C29.1731 11.4792 29.0855 11.7167 29.0855 12C29.0855 12.2833 29.1731 12.5208 29.3483 12.7125C29.5236 12.9042 29.7407 13 29.9997 13Z" fill="#333333"/>
</g>
</svg>
