<svg width="60" height="30" viewBox="0 0 60 30" fill="none" xmlns="http://www.w3.org/2000/svg">
<path d="M24.2852 7.2832C24.5422 7.87215 24.8963 8.40844 25.3262 8.87402C25.2401 8.95321 25.1552 9.03518 25.0713 9.11914C23.5953 10.5952 22.8575 12.3967 22.8574 14.5234C22.8574 15.0947 22.9209 15.6584 23.0479 16.2139C23.1748 16.7694 23.3652 17.3016 23.6191 17.8096C23.7302 18.0158 23.7899 18.2339 23.7979 18.4639C23.8058 18.694 23.7773 18.9204 23.7139 19.1426L22.8096 22.1904L25.8574 21.2861C26.0796 21.2227 26.306 21.198 26.5361 21.2139C26.7661 21.2298 26.9842 21.2857 27.1904 21.3809C27.6984 21.6348 28.2306 21.8252 28.7861 21.9521C29.3416 22.0791 29.9053 22.1426 30.4766 22.1426C32.2832 22.1425 33.8533 21.6081 35.1904 20.543C35.3521 20.8557 35.5281 21.1776 35.7168 21.5039C35.8533 21.7399 35.9921 21.9687 36.1299 22.1895C35.5383 22.6238 34.8928 22.9948 34.1904 23.2979C33.0318 23.7978 31.7938 24.0478 30.4766 24.0479C29.7623 24.0479 29.0634 23.9721 28.3809 23.8213C27.6984 23.6705 27.0316 23.4441 26.3809 23.1426L20 25L21.8574 18.6191C21.5559 17.9684 21.3295 17.3016 21.1787 16.6191C21.0279 15.9366 20.9521 15.2377 20.9521 14.5234C20.9522 13.2062 21.2022 11.9682 21.7021 10.8096C22.2021 9.65089 22.8812 8.64325 23.7383 7.78613C23.9138 7.61058 24.097 7.44377 24.2852 7.2832ZM35.1094 6.20312C35.8902 6.63705 36.5919 7.16414 37.2139 7.78613C38.071 8.64328 38.75 9.65084 39.25 10.8096C39.7499 11.9682 40 13.2061 40 14.5234C40 15.8409 39.75 17.0796 39.25 18.2383C38.8194 19.2362 38.2551 20.1213 37.5596 20.8955C37.4962 20.7816 37.4319 20.6661 37.3652 20.5508C37.0865 20.0688 36.8014 19.6164 36.5225 19.2041C37.5696 17.8743 38.0957 16.3149 38.0957 14.5234C38.0956 12.3966 37.357 10.5952 35.8809 9.11914C35.4226 8.66093 34.933 8.27399 34.4121 7.95801C34.736 7.42396 34.9744 6.83297 35.1094 6.20312ZM30.4766 5C31.6099 5.00004 32.6843 5.1856 33.7002 5.55566C33.6153 6.19954 33.3856 6.79718 33.0439 7.31543C32.2485 7.04152 31.3927 6.90433 30.4766 6.9043C29.0053 6.9043 27.6892 7.25757 26.5293 7.96387C26.09 7.51995 25.7494 6.97905 25.541 6.37598C25.9274 6.14297 26.3343 5.93442 26.7617 5.75C27.9204 5.25 29.1591 5 30.4766 5Z" fill="#333333"/>
<circle cx="30.4765" cy="14.5238" r="3.05952" stroke="#333333" stroke-width="1.5"/>
</svg>
