<svg width="60" height="30" viewBox="0 0 60 30" fill="none" xmlns="http://www.w3.org/2000/svg">
<mask id="mask0_2010_11527" style="mask-type:alpha" maskUnits="userSpaceOnUse" x="19" y="3" width="22" height="24">
<rect x="19.0283" y="3" width="21.9429" height="24" fill="#D9D9D9"/>
</mask>
<g mask="url(#mask0_2010_11527)">
<path d="M22.7315 24C22.4572 24 22.2286 23.9 22.0458 23.7C21.8629 23.5 21.7715 23.25 21.7715 22.95V18.9C21.7715 18.6833 21.8401 18.4875 21.9772 18.3125C22.1143 18.1375 22.2896 18.0167 22.5029 17.95L25.6572 17.25C25.8705 17.2167 26.0877 17.2375 26.3086 17.3125C26.5296 17.3875 26.7086 17.5 26.8458 17.65L28.9943 20C29.5734 19.6333 30.122 19.2292 30.6401 18.7875C31.1582 18.3458 31.6534 17.8667 32.1258 17.35C32.6286 16.8167 33.0896 16.2625 33.5086 15.6875C33.9277 15.1125 34.2896 14.5167 34.5943 13.9L32.3772 11.45C32.2553 11.3167 32.1715 11.1583 32.1258 10.975C32.0801 10.7917 32.0724 10.5667 32.1029 10.3L32.6972 6.8C32.7277 6.58333 32.8267 6.39583 32.9943 6.2375C33.162 6.07917 33.3524 6 33.5658 6H37.2686C37.5429 6 37.7715 6.1 37.9543 6.3C38.1372 6.5 38.2286 6.75 38.2286 7.05C38.2286 9.13333 37.8134 11.1917 36.9829 13.225C36.1524 15.2583 34.9753 17.1083 33.4515 18.775C31.9277 20.4417 30.2362 21.7292 28.3772 22.6375C26.5182 23.5458 24.6362 24 22.7315 24ZM35.4401 12C35.6991 11.35 35.8972 10.6917 36.0343 10.025C36.1715 9.35833 36.2782 8.68333 36.3543 8H34.3429L33.9315 10.35L35.4401 12ZM27.2572 20.9L25.7486 19.25L23.6001 19.75V21.95C24.2248 21.9 24.842 21.7833 25.4515 21.6C26.061 21.4167 26.6629 21.1833 27.2572 20.9Z" fill="#333333"/>
</g>
</svg>
